<?xml version="1.0" encoding="UTF-8" standalone="no"?>
<!DOCTYPE svg PUBLIC "-//W3C//DTD SVG 1.1//EN" "http://www.w3.org/Graphics/SVG/1.1/DTD/svg11.dtd">
<!-- Generated by graphviz version 2.40.1 (20161225.0304)
 -->
<!-- Title: workflow Pages: 1 -->
<svg width="1869pt" height="533pt" viewBox="0.00 0.00 1868.79 532.80" xmlns="http://www.w3.org/2000/svg" xmlns:xlink="http://www.w3.org/1999/xlink">
<g id="graph0" class="graph" transform="scale(1 1) rotate(0) translate(4 528.8)">
<title>workflow</title>
<polygon fill="#ffffff" stroke="transparent" points="-4,4 -4,-528.8 1864.7929,-528.8 1864.7929,4 -4,4"/>
<!-- place_a786187f18abff07a21c272442bc3d3d0354004b -->
<g id="node1" class="node">
<title>place_a786187f18abff07a21c272442bc3d3d0354004b</title>
<ellipse fill="#add8e6" stroke="#333333" cx="36" cy="-473" rx="36" ry="36"/>
<text text-anchor="middle" x="36" y="-470.3" font-family="Arial" font-size="9.00" fill="#000000">CREATED</text>
</g>
<!-- place_134443c90f370f5f769bc32020ad79c1b4256bb2 -->
<g id="node2" class="node">
<title>place_134443c90f370f5f769bc32020ad79c1b4256bb2</title>
<ellipse fill="none" stroke="#333333" cx="257.8801" cy="-356" rx="60.726" ry="60.726"/>
<text text-anchor="middle" x="257.8801" y="-353.3" font-family="Arial" font-size="9.00" fill="#000000">WAITING_FOR_FILLING</text>
</g>
<!-- place_a786187f18abff07a21c272442bc3d3d0354004b&#45;&gt;place_134443c90f370f5f769bc32020ad79c1b4256bb2 -->
<g id="edge1" class="edge">
<title>place_a786187f18abff07a21c272442bc3d3d0354004b-&gt;place_134443c90f370f5f769bc32020ad79c1b4256bb2</title>
<path fill="none" stroke="#333333" d="M68.2633,-455.9872C102.4732,-437.9479 157.247,-409.065 199.1489,-386.9696"/>
<polygon fill="#333333" stroke="#333333" points="200.0699,-388.4624 203.6764,-384.5822 198.4373,-385.3665 200.0699,-388.4624"/>
<text text-anchor="middle" x="134.5086" y="-443.7" font-family="Arial" font-size="9.00" fill="#000000">start_filing_application</text>
</g>
<!-- place_86d78ef8c6102ad2d4c2fc1408fba9cbd93d6632 -->
<g id="node5" class="node">
<title>place_86d78ef8c6102ad2d4c2fc1408fba9cbd93d6632</title>
<ellipse fill="none" stroke="#333333" cx="794.2945" cy="-442" rx="36" ry="36"/>
<text text-anchor="middle" x="794.2945" y="-439.3" font-family="Arial" font-size="9.00" fill="#000000">REJECTED</text>
</g>
<!-- place_a786187f18abff07a21c272442bc3d3d0354004b&#45;&gt;place_86d78ef8c6102ad2d4c2fc1408fba9cbd93d6632 -->
<g id="edge2" class="edge">
<title>place_a786187f18abff07a21c272442bc3d3d0354004b-&gt;place_86d78ef8c6102ad2d4c2fc1408fba9cbd93d6632</title>
<path fill="none" stroke="#333333" d="M72.0673,-473.0562C173.3673,-472.961 469.0481,-470.9467 713.7733,-452 726.6681,-451.0017 740.6707,-449.4332 753.3278,-447.8319"/>
<polygon fill="#333333" stroke="#333333" points="753.5554,-449.5672 758.2914,-447.1938 753.1091,-446.0957 753.5554,-449.5672"/>
<text text-anchor="middle" x="385.0045" y="-471.7" font-family="Arial" font-size="9.00" fill="#000000">application_rejected</text>
</g>
<!-- place_147f62181333eb9bdc9cde56d8325b4c83840c94 -->
<g id="node7" class="node">
<title>place_147f62181333eb9bdc9cde56d8325b4c83840c94</title>
<ellipse fill="none" stroke="#333333" cx="1657.4157" cy="-231" rx="60.7372" ry="60.7372"/>
<text text-anchor="middle" x="1657.4157" y="-228.3" font-family="Arial" font-size="9.00" fill="#000000">CANCELLED_BY_SHOP</text>
</g>
<!-- place_a786187f18abff07a21c272442bc3d3d0354004b&#45;&gt;place_147f62181333eb9bdc9cde56d8325b4c83840c94 -->
<g id="edge3" class="edge">
<title>place_a786187f18abff07a21c272442bc3d3d0354004b-&gt;place_147f62181333eb9bdc9cde56d8325b4c83840c94</title>
<path fill="none" stroke="#333333" d="M70.6052,-483.4521C113.9509,-495.5994 190.6984,-514 257.8801,-514 257.8801,-514 257.8801,-514 1372.9837,-514 1498.1408,-514 1587.7226,-374.6003 1630.0157,-291.4732"/>
<polygon fill="#333333" stroke="#333333" points="1631.7976,-291.8264 1632.4868,-286.574 1628.6726,-290.2502 1631.7976,-291.8264"/>
<text text-anchor="middle" x="794.2945" y="-516.7" font-family="Arial" font-size="9.00" fill="#000000">application_cancelled_by_shop</text>
</g>
<!-- place_134443c90f370f5f769bc32020ad79c1b4256bb2&#45;&gt;place_134443c90f370f5f769bc32020ad79c1b4256bb2 -->
<g id="edge5" class="edge">
<title>place_134443c90f370f5f769bc32020ad79c1b4256bb2-&gt;place_134443c90f370f5f769bc32020ad79c1b4256bb2</title>
<path fill="none" stroke="#333333" d="M235.5635,-412.7125C237.574,-425.5056 245.0129,-434.8629 257.8801,-434.8629 269.0383,-434.8629 276.1144,-427.8261 279.1083,-417.614"/>
<polygon fill="#333333" stroke="#333333" points="280.8211,-417.9729 280.1966,-412.7125 277.4043,-417.2142 280.8211,-417.9729"/>
<text text-anchor="middle" x="257.8801" y="-437.5629" font-family="Arial" font-size="9.00" fill="#000000">financing_partner_reject</text>
</g>
<!-- place_f8f31776c82e5976442657465322060c33841def -->
<g id="node3" class="node">
<title>place_f8f31776c82e5976442657465322060c33841def</title>
<ellipse fill="none" stroke="#333333" cx="530.5078" cy="-271" rx="79.4841" ry="79.4841"/>
<text text-anchor="middle" x="530.5078" y="-268.3" font-family="Arial" font-size="9.00" fill="#000000">WAITING_FOR_CONFIRMATION</text>
</g>
<!-- place_134443c90f370f5f769bc32020ad79c1b4256bb2&#45;&gt;place_f8f31776c82e5976442657465322060c33841def -->
<g id="edge4" class="edge">
<title>place_134443c90f370f5f769bc32020ad79c1b4256bb2-&gt;place_f8f31776c82e5976442657465322060c33841def</title>
<path fill="none" stroke="#333333" d="M308.2048,-321.1035C317.4,-315.8309 327.1336,-310.9206 336.7429,-307.2 371.4186,-293.7741 411.5652,-285.2238 446.2919,-279.8289"/>
<polygon fill="#333333" stroke="#333333" points="446.695,-281.5378 451.3749,-279.0557 446.1686,-278.0776 446.695,-281.5378"/>
<text text-anchor="middle" x="385.0045" y="-310.7" font-family="Arial" font-size="9.00" fill="#000000">application_sent</text>
</g>
<!-- place_134443c90f370f5f769bc32020ad79c1b4256bb2&#45;&gt;place_86d78ef8c6102ad2d4c2fc1408fba9cbd93d6632 -->
<g id="edge6" class="edge">
<title>place_134443c90f370f5f769bc32020ad79c1b4256bb2-&gt;place_86d78ef8c6102ad2d4c2fc1408fba9cbd93d6632</title>
<path fill="none" stroke="#333333" d="M312.1932,-383.491C320.272,-386.7832 328.6167,-389.7638 336.7429,-392 486.2029,-433.1296 671.8859,-440.6364 753.0704,-441.8598"/>
<polygon fill="#333333" stroke="#333333" points="753.2416,-443.6123 758.2653,-441.9316 753.29,-440.1126 753.2416,-443.6123"/>
<text text-anchor="middle" x="530.5078" y="-437.7" font-family="Arial" font-size="9.00" fill="#000000">application_rejected</text>
</g>
<!-- place_134443c90f370f5f769bc32020ad79c1b4256bb2&#45;&gt;place_147f62181333eb9bdc9cde56d8325b4c83840c94 -->
<g id="edge7" class="edge">
<title>place_134443c90f370f5f769bc32020ad79c1b4256bb2-&gt;place_147f62181333eb9bdc9cde56d8325b4c83840c94</title>
<path fill="none" stroke="#333333" d="M318.4047,-363.6945C373.5769,-370.0387 457.3808,-378 530.5078,-378 530.5078,-378 530.5078,-378 1372.9837,-378 1463.4546,-378 1553.8584,-318.5802 1607.7106,-275.2964"/>
<polygon fill="#333333" stroke="#333333" points="1609.0608,-276.4548 1611.8444,-271.9477 1606.8576,-273.7352 1609.0608,-276.4548"/>
<text text-anchor="middle" x="937.3369" y="-380.7" font-family="Arial" font-size="9.00" fill="#000000">application_cancelled_by_shop</text>
</g>
<!-- place_f8f31776c82e5976442657465322060c33841def&#45;&gt;place_134443c90f370f5f769bc32020ad79c1b4256bb2 -->
<g id="edge9" class="edge">
<title>place_f8f31776c82e5976442657465322060c33841def-&gt;place_134443c90f370f5f769bc32020ad79c1b4256bb2</title>
<path fill="none" stroke="#333333" d="M459.8968,-307.5062C451.059,-311.3652 442.0415,-314.9766 433.2661,-318 397.7564,-330.2342 356.7983,-339.3727 323.3973,-345.618"/>
<polygon fill="#333333" stroke="#333333" points="322.7026,-343.9666 318.1036,-346.5955 323.3383,-347.4084 322.7026,-343.9666"/>
<text text-anchor="middle" x="385.0045" y="-344.7" font-family="Arial" font-size="9.00" fill="#000000">financing_partner_reject</text>
</g>
<!-- place_2d1dfaefde15aa94c877f1bc8773d926db0ce8d6 -->
<g id="node4" class="node">
<title>place_2d1dfaefde15aa94c877f1bc8773d926db0ce8d6</title>
<ellipse fill="none" stroke="#333333" cx="794.2945" cy="-150" rx="36" ry="36"/>
<text text-anchor="middle" x="794.2945" y="-147.3" font-family="Arial" font-size="9.00" fill="#000000">ACCEPTED</text>
</g>
<!-- place_f8f31776c82e5976442657465322060c33841def&#45;&gt;place_2d1dfaefde15aa94c877f1bc8773d926db0ce8d6 -->
<g id="edge8" class="edge">
<title>place_f8f31776c82e5976442657465322060c33841def-&gt;place_2d1dfaefde15aa94c877f1bc8773d926db0ce8d6</title>
<path fill="none" stroke="#333333" d="M602.1389,-237.1033C610.7589,-233.0713 619.4462,-229.0297 627.7495,-225.2 671.8196,-204.8738 722.6907,-181.9874 756.498,-166.8586"/>
<polygon fill="#333333" stroke="#333333" points="757.5098,-168.3232 761.3593,-164.6841 756.0806,-165.1283 757.5098,-168.3232"/>
<text text-anchor="middle" x="670.7614" y="-228.7" font-family="Arial" font-size="9.00" fill="#000000">application_accepted</text>
</g>
<!-- place_f8f31776c82e5976442657465322060c33841def&#45;&gt;place_86d78ef8c6102ad2d4c2fc1408fba9cbd93d6632 -->
<g id="edge10" class="edge">
<title>place_f8f31776c82e5976442657465322060c33841def-&gt;place_86d78ef8c6102ad2d4c2fc1408fba9cbd93d6632</title>
<path fill="none" stroke="#333333" d="M597.0723,-314.1505C648.7608,-347.6576 718.3578,-392.7739 759.558,-419.482"/>
<polygon fill="#333333" stroke="#333333" points="758.7988,-421.0754 763.9463,-422.3268 760.7027,-418.1385 758.7988,-421.0754"/>
<text text-anchor="middle" x="670.7614" y="-388.7" font-family="Arial" font-size="9.00" fill="#000000">application_rejected</text>
</g>
<!-- place_5587b0afcca208a7504cee0d2b70832d76010329 -->
<g id="node6" class="node">
<title>place_5587b0afcca208a7504cee0d2b70832d76010329</title>
<ellipse fill="none" stroke="#333333" cx="794.2945" cy="-314" rx="36.0182" ry="36.0182"/>
<text text-anchor="middle" x="794.2945" y="-311.3" font-family="Arial" font-size="9.00" fill="#000000">CANCELLED</text>
</g>
<!-- place_f8f31776c82e5976442657465322060c33841def&#45;&gt;place_5587b0afcca208a7504cee0d2b70832d76010329 -->
<g id="edge11" class="edge">
<title>place_f8f31776c82e5976442657465322060c33841def-&gt;place_5587b0afcca208a7504cee0d2b70832d76010329</title>
<path fill="none" stroke="#333333" d="M608.9383,-283.785C656.3204,-291.5088 714.7833,-301.0388 753.2288,-307.3059"/>
<polygon fill="#333333" stroke="#333333" points="753.0668,-309.0525 758.2833,-308.1298 753.63,-305.5981 753.0668,-309.0525"/>
<text text-anchor="middle" x="670.7614" y="-303.7" font-family="Arial" font-size="9.00" fill="#000000">application_cancelled</text>
</g>
<!-- place_f8f31776c82e5976442657465322060c33841def&#45;&gt;place_147f62181333eb9bdc9cde56d8325b4c83840c94 -->
<g id="edge12" class="edge">
<title>place_f8f31776c82e5976442657465322060c33841def-&gt;place_147f62181333eb9bdc9cde56d8325b4c83840c94</title>
<path fill="none" stroke="#333333" d="M609.4454,-261.4218C661.7905,-255.8833 732.0442,-250 794.2945,-250 794.2945,-250 794.2945,-250 1372.9837,-250 1448.0472,-250 1534.0065,-243.3306 1591.6019,-237.8946"/>
<polygon fill="#333333" stroke="#333333" points="1591.9264,-239.6218 1596.7382,-237.406 1591.5949,-236.1375 1591.9264,-239.6218"/>
<text text-anchor="middle" x="1083.6391" y="-252.7" font-family="Arial" font-size="9.00" fill="#000000">application_cancelled_by_shop</text>
</g>
<!-- place_2d1dfaefde15aa94c877f1bc8773d926db0ce8d6&#45;&gt;place_147f62181333eb9bdc9cde56d8325b4c83840c94 -->
<g id="edge13" class="edge">
<title>place_2d1dfaefde15aa94c877f1bc8773d926db0ce8d6-&gt;place_147f62181333eb9bdc9cde56d8325b4c83840c94</title>
<path fill="none" stroke="#333333" d="M830.2227,-155.6563C874.3233,-162.4431 951.4371,-173.8051 1017.8581,-181 1226.7912,-203.6323 1475.1916,-220.0656 1591.364,-227.1422"/>
<polygon fill="#333333" stroke="#333333" points="1591.3599,-228.895 1596.4569,-227.4515 1591.5722,-225.4015 1591.3599,-228.895"/>
<text text-anchor="middle" x="1229.9413" y="-208.7" font-family="Arial" font-size="9.00" fill="#000000">application_cancelled_by_shop</text>
</g>
<!-- place_8b7992a3a859c9d062d8efd71cee5f4ea78b1b92 -->
<g id="node8" class="node">
<title>place_8b7992a3a859c9d062d8efd71cee5f4ea78b1b92</title>
<ellipse fill="none" stroke="#333333" cx="1083.6391" cy="-106" rx="65.5627" ry="65.5627"/>
<text text-anchor="middle" x="1083.6391" y="-103.3" font-family="Arial" font-size="9.00" fill="#000000">WAITING_FOR_PAYMENT</text>
</g>
<!-- place_2d1dfaefde15aa94c877f1bc8773d926db0ce8d6&#45;&gt;place_8b7992a3a859c9d062d8efd71cee5f4ea78b1b92 -->
<g id="edge14" class="edge">
<title>place_2d1dfaefde15aa94c877f1bc8773d926db0ce8d6-&gt;place_8b7992a3a859c9d062d8efd71cee5f4ea78b1b92</title>
<path fill="none" stroke="#333333" d="M830.064,-144.5606C875.6362,-137.6305 955.4281,-125.4968 1013.3583,-116.6875"/>
<polygon fill="#333333" stroke="#333333" points="1013.8621,-118.381 1018.5422,-115.8991 1013.3359,-114.9208 1013.8621,-118.381"/>
<text text-anchor="middle" x="937.3369" y="-139.7" font-family="Arial" font-size="9.00" fill="#000000">withdraw_cash</text>
</g>
<!-- place_457d9a220c40fb7afdb1a52bebb1eb2bb2e7c0f6 -->
<g id="node10" class="node">
<title>place_457d9a220c40fb7afdb1a52bebb1eb2bb2e7c0f6</title>
<ellipse fill="none" stroke="#333333" cx="1657.4157" cy="-36" rx="36" ry="36"/>
<text text-anchor="middle" x="1657.4157" y="-33.3" font-family="Arial" font-size="9.00" fill="#000000">RESIGN</text>
</g>
<!-- place_2d1dfaefde15aa94c877f1bc8773d926db0ce8d6&#45;&gt;place_457d9a220c40fb7afdb1a52bebb1eb2bb2e7c0f6 -->
<g id="edge15" class="edge">
<title>place_2d1dfaefde15aa94c877f1bc8773d926db0ce8d6-&gt;place_457d9a220c40fb7afdb1a52bebb1eb2bb2e7c0f6</title>
<path fill="none" stroke="#333333" d="M823.4647,-128.4303C864.4086,-99.6247 942.3922,-50.0179 1017.8581,-31 1237.8318,24.4349 1514.0299,-11.7944 1616.6145,-28.6881"/>
<polygon fill="#333333" stroke="#333333" points="1616.4411,-30.4332 1621.6604,-29.5267 1617.0149,-26.9806 1616.4411,-30.4332"/>
<text text-anchor="middle" x="1229.9413" y="-9.7" font-family="Arial" font-size="9.00" fill="#000000">resign</text>
</g>
<!-- place_8b7992a3a859c9d062d8efd71cee5f4ea78b1b92&#45;&gt;place_147f62181333eb9bdc9cde56d8325b4c83840c94 -->
<g id="edge16" class="edge">
<title>place_8b7992a3a859c9d062d8efd71cee5f4ea78b1b92-&gt;place_147f62181333eb9bdc9cde56d8325b4c83840c94</title>
<path fill="none" stroke="#333333" d="M1148.5771,-117.6936C1278.1111,-141.0716 1558.004,-191.8688 1578.5473,-198 1584.4364,-199.7576 1590.4837,-201.81 1596.484,-204.0158"/>
<polygon fill="#333333" stroke="#333333" points="1596.2126,-205.7831 1601.5087,-205.9016 1597.4425,-202.5063 1596.2126,-205.7831"/>
<text text-anchor="middle" x="1372.9837" y="-172.7" font-family="Arial" font-size="9.00" fill="#000000">application_cancelled_by_shop</text>
</g>
<!-- place_f3534db51ac9c3b29d7efb0e32ff2527da9c0c8d -->
<g id="node9" class="node">
<title>place_f3534db51ac9c3b29d7efb0e32ff2527da9c0c8d</title>
<ellipse fill="none" stroke="#333333" cx="1372.9837" cy="-101" rx="36" ry="36"/>
<text text-anchor="middle" x="1372.9837" y="-98.3" font-family="Arial" font-size="9.00" fill="#000000">PAID</text>
</g>
<!-- place_8b7992a3a859c9d062d8efd71cee5f4ea78b1b92&#45;&gt;place_f3534db51ac9c3b29d7efb0e32ff2527da9c0c8d -->
<g id="edge17" class="edge">
<title>place_8b7992a3a859c9d062d8efd71cee5f4ea78b1b92-&gt;place_f3534db51ac9c3b29d7efb0e32ff2527da9c0c8d</title>
<path fill="none" stroke="#333333" d="M1149.6579,-104.8592C1205.6607,-103.8914 1284.2553,-102.5333 1331.726,-101.713"/>
<polygon fill="#333333" stroke="#333333" points="1331.8195,-103.4617 1336.7885,-101.6255 1331.759,-99.9622 1331.8195,-103.4617"/>
<text text-anchor="middle" x="1229.9413" y="-107.7" font-family="Arial" font-size="9.00" fill="#000000">paid</text>
</g>
<!-- place_8b7992a3a859c9d062d8efd71cee5f4ea78b1b92&#45;&gt;place_457d9a220c40fb7afdb1a52bebb1eb2bb2e7c0f6 -->
<g id="edge18" class="edge">
<title>place_8b7992a3a859c9d062d8efd71cee5f4ea78b1b92-&gt;place_457d9a220c40fb7afdb1a52bebb1eb2bb2e7c0f6</title>
<path fill="none" stroke="#333333" d="M1146.3564,-84.9147C1191.4368,-70.8168 1253.9779,-53.4021 1310.4625,-45.2 1419.7928,-29.3242 1550.4838,-31.4697 1615.8594,-33.9663"/>
<polygon fill="#333333" stroke="#333333" points="1616.1512,-35.729 1621.2162,-34.1773 1616.289,-32.2317 1616.1512,-35.729"/>
<text text-anchor="middle" x="1372.9837" y="-48.7" font-family="Arial" font-size="9.00" fill="#000000">resign</text>
</g>
<!-- place_f3534db51ac9c3b29d7efb0e32ff2527da9c0c8d&#45;&gt;place_147f62181333eb9bdc9cde56d8325b4c83840c94 -->
<g id="edge19" class="edge">
<title>place_f3534db51ac9c3b29d7efb0e32ff2527da9c0c8d-&gt;place_147f62181333eb9bdc9cde56d8325b4c83840c94</title>
<path fill="none" stroke="#333333" d="M1409.0589,-103.0044C1451.9841,-106.7511 1524.615,-117.4845 1578.5473,-148.2 1592.3413,-156.056 1605.2128,-167.0824 1616.3922,-178.5323"/>
<polygon fill="#333333" stroke="#333333" points="1615.3969,-180.0236 1620.1175,-182.4276 1617.9264,-177.6045 1615.3969,-180.0236"/>
<text text-anchor="middle" x="1516.0261" y="-151.7" font-family="Arial" font-size="9.00" fill="#000000">application_cancelled_by_shop</text>
</g>
<!-- place_f3534db51ac9c3b29d7efb0e32ff2527da9c0c8d&#45;&gt;place_457d9a220c40fb7afdb1a52bebb1eb2bb2e7c0f6 -->
<g id="edge20" class="edge">
<title>place_f3534db51ac9c3b29d7efb0e32ff2527da9c0c8d-&gt;place_457d9a220c40fb7afdb1a52bebb1eb2bb2e7c0f6</title>
<path fill="none" stroke="#333333" d="M1408.1459,-92.9645C1461.096,-80.8641 1561.0409,-58.0241 1616.948,-45.2479"/>
<polygon fill="#333333" stroke="#333333" points="1617.4027,-46.9392 1621.8872,-44.1192 1616.623,-43.5271 1617.4027,-46.9392"/>
<text text-anchor="middle" x="1516.0261" y="-84.7" font-family="Arial" font-size="9.00" fill="#000000">resign</text>
</g>
<!-- place_165f370fb43048f5233a7bf0ddce69e0d762fdbc -->
<g id="node11" class="node">
<title>place_165f370fb43048f5233a7bf0ddce69e0d762fdbc</title>
<ellipse fill="none" stroke="#333333" cx="1824.7929" cy="-36" rx="36" ry="36"/>
<text text-anchor="middle" x="1824.7929" y="-33.3" font-family="Arial" font-size="9.00" fill="#000000">RESIGNED</text>
</g>
<!-- place_457d9a220c40fb7afdb1a52bebb1eb2bb2e7c0f6&#45;&gt;place_165f370fb43048f5233a7bf0ddce69e0d762fdbc -->
<g id="edge21" class="edge">
<title>place_457d9a220c40fb7afdb1a52bebb1eb2bb2e7c0f6-&gt;place_165f370fb43048f5233a7bf0ddce69e0d762fdbc</title>
<path fill="none" stroke="#333333" d="M1693.7341,-36C1720.1638,-36 1755.9921,-36 1783.5084,-36"/>
<polygon fill="#333333" stroke="#333333" points="1783.5454,-37.7501 1788.5454,-36 1783.5454,-34.2501 1783.5454,-37.7501"/>
<text text-anchor="middle" x="1753.5385" y="-38.7" font-family="Arial" font-size="9.00" fill="#000000">resigned</text>
</g>
</g>
</svg>